# xmcd
#
# Track frame offsets: 
#        150
#        13396
#        24345
#        41610
#        63873
#        78988
#        89228
#        109800
#        121753
#        134000
#        144825
#        156786
#        168454
#        182786
#        193190
#        204089
#        217898
#        228753
#        239667
#        267823
#        296932
#        308718
#
# Disc length: 4256 seconds
#
# Revision: 1
# Processed by: cddbd v1.5.2PL0 Copyright (c) Steve Scherf et al.
# Submitted via: ExactAudioCopy v1.0b3
#
DISCID=3a109e16
DTITLE=Freddie King - Taking Care of Business [CD3]
DYEAR=2009
DGENRE=Blues
TTITLE0=Your Love Keeps A-Working On Me
TTITLE1=What About Love
TTITLE2=Bossa Nova Blues
TTITLE3=The Bossa Nova Watusi Twist
TTITLE4=Freeway 75
TTITLE5=Walk Down That Aisle (Honey Chile)
TTITLE6=Someday, After Awhile (You'll Be Sorry)
TTITLE7=You Walked In
TTITLE8=You're Barkin' Up the Wrong Tree
TTITLE9=Is My Baby Mad At Me (w[forwardslash]o horns)
TTITLE10=(The Welfare) Turns Its Back On You
TTITLE11=It Hurts To Be In Love
TTITLE12=Look Ma, I'm Cryin'
TTITLE13=(I'd Love To) Make Love To You (w[forwardslash]o guitar)
TTITLE14=One Hundred Years (w[forwardslash]o guitar)
TTITLE15=Now I've Got a Woman
TTITLE16=Surf Monkey
TTITLE17=If You Have It
TTITLE18=Low Tide (Zoo Surfin')
TTITLE19=Remington Ride
TTITLE20=Monkey Donkey
TTITLE21=Walk Down That Aisle (Honey Chile) (alternate take)
EXTD=
EXTT0=
EXTT1=
EXTT2=
EXTT3=
EXTT4=
EXTT5=
EXTT6=
EXTT7=
EXTT8=
EXTT9=
EXTT10=
EXTT11=
EXTT12=
EXTT13=
EXTT14=
EXTT15=
EXTT16=
EXTT17=
EXTT18=
EXTT19=
EXTT20=
EXTT21=
PLAYORDER=
